<svg version="1.1" id="Layer_1" xmlns="http://www.w3.org/2000/svg" xmlns:xlink="http://www.w3.org/1999/xlink" x="0px" y="0px"
	 width="100%" viewBox="0 0 225 225" enable-background="new 0 0 225 225" xml:space="preserve">
<path fill="none" opacity="1.000000" stroke="#000000" stroke-linecap="round" stroke-linejoin="round" stroke-width="5.000000"
	d="
M172.000000,27.000000 
	C167.765305,28.456560 163.809692,30.337900 160.476746,33.475292 
	C155.681656,37.989033 153.488937,43.483116 153.491486,50.000004 
	C153.508087,92.333336 153.553040,134.666779 153.469818,176.999939 
	C153.442490,190.898895 164.562393,198.734390 173.010498,199.925491 
	C187.379333,201.951401 197.425262,192.203873 199.597549,182.020813 
	C199.965485,180.295990 199.964081,178.656570 199.965790,176.999969 
	C200.009262,135.000015 199.582642,92.993317 200.254700,51.004078 
	C200.455933,38.430676 187.731522,24.850510 175.995071,26.972715 
	C174.865326,27.176994 173.666672,27.000000 172.500000,27.000000 
"/>
<path fill="none" opacity="1.000000" stroke="#000000" stroke-linecap="round" stroke-linejoin="round" stroke-width="5.000000"
	d="
M110.500000,78.500000 
	C98.117966,80.451019 89.764908,91.074127 89.914162,103.501030 
	C90.206375,127.830856 90.165848,152.168259 89.932648,176.499359 
	C89.809105,189.389664 101.647888,200.496277 114.004852,200.208542 
	C124.817200,199.956787 137.153366,190.132370 137.050598,176.499619 
	C136.869690,152.500977 136.533142,128.487518 137.173935,104.504646 
	C137.562500,89.962112 126.041161,76.801208 111.000000,78.500000 
"/>
<path fill="none" opacity="1.000000" stroke="#000000" stroke-linecap="round" stroke-linejoin="round" stroke-width="5.000000"
	d="
M47.500000,153.500000 
	C37.022858,154.978500 30.277895,161.079468 27.594828,171.025574 
	C23.459076,186.356812 35.583561,199.237289 48.490547,200.135788 
	C60.658131,200.982819 71.070198,191.812820 72.886520,182.976669 
	C75.308533,171.193939 71.846634,161.624710 59.471073,155.054489 
	C55.958469,153.189651 51.909801,153.413742 48.000000,153.500000 
"/>
</svg>